<svg width="30" height="30" viewBox="0 0 30 30" fill="none" xmlns="http://www.w3.org/2000/svg">
<g clip-path="url(#clip0_2_342)">
<path d="M29.9998 15C29.9998 6.71556 23.2842 0 14.9998 0C6.71531 0 -0.000244141 6.71556 -0.000244141 15C-0.000244141 22.4867 5.4842 28.6933 12.6553 29.8178V19.3356H8.84642V15H12.6553V11.6956C12.6553 7.93556 14.8953 5.86 18.322 5.86C19.9642 5.86 21.6798 6.15333 21.6798 6.15333V9.84444H19.7886C17.9264 9.84444 17.3442 11 17.3442 12.1867V15H21.5042L20.8398 19.3356H17.3442V29.8178C24.5153 28.6933 29.9998 22.4867 29.9998 15Z" fill="#FFD012"/>
<path d="M20.8375 19.3355L21.502 15H17.342V12.1867C17.342 11 17.922 9.84443 19.7864 9.84443H21.6775V6.15332C21.6775 6.15332 19.962 5.85999 18.3197 5.85999C14.8931 5.85999 12.6531 7.93554 12.6531 11.6955V15H8.84418V19.3355H12.6531V29.8178C13.4175 29.9378 14.1997 30 14.9975 30C15.7953 30 16.5775 29.9378 17.342 29.8178V19.3355H20.8375Z" fill="white"/>
</g>
<defs>
<clipPath id="clip0_2_342">
<rect width="30" height="30" fill="white" transform="translate(-0.000244141)"/>
</clipPath>
</defs>
</svg>
