<svg width="30" height="30" viewBox="0 0 30 30" fill="none" xmlns="http://www.w3.org/2000/svg">
<g clip-path="url(#clip0_2_345)">
<path d="M14.9998 30C23.284 30 29.9998 23.2843 29.9998 15C29.9998 6.71573 23.284 0 14.9998 0C6.71548 0 -0.000244141 6.71573 -0.000244141 15C-0.000244141 23.2843 6.71548 30 14.9998 30Z" fill="#FFD012"/>
<path d="M14.9998 7.25776C17.522 7.25776 17.8198 7.26665 18.8153 7.31332C19.7353 7.35554 20.2353 7.50888 20.5687 7.63776C21.0087 7.80888 21.3242 8.01332 21.6553 8.34443C21.9864 8.67554 22.1909 8.98888 22.362 9.4311C22.4909 9.76443 22.6442 10.2644 22.6864 11.1844C22.7309 12.18 22.742 12.48 22.742 15C22.742 17.52 22.7331 17.82 22.6864 18.8155C22.6442 19.7355 22.4909 20.2355 22.362 20.5689C22.1909 21.0089 21.9864 21.3244 21.6553 21.6555C21.3242 21.9867 21.0109 22.1911 20.5687 22.3622C20.2353 22.4911 19.7353 22.6444 18.8153 22.6867C17.8198 22.7311 17.522 22.7422 14.9998 22.7422C12.4775 22.7422 12.1798 22.7333 11.1842 22.6867C10.2642 22.6444 9.76421 22.4911 9.43088 22.3622C8.99088 22.1911 8.67532 21.9867 8.34421 21.6555C8.0131 21.3244 7.80866 21.0111 7.63754 20.5689C7.50866 20.2355 7.35532 19.7355 7.3131 18.8155C7.26866 17.82 7.25754 17.52 7.25754 15C7.25754 12.48 7.26643 12.18 7.3131 11.1844C7.35532 10.2644 7.50866 9.76443 7.63754 9.4311C7.80866 8.9911 8.0131 8.67554 8.34421 8.34443C8.67532 8.01332 8.98866 7.80888 9.43088 7.63776C9.76421 7.50888 10.2642 7.35554 11.1842 7.31332C12.1798 7.26888 12.4798 7.25776 14.9998 7.25776ZM14.9998 5.55554C12.4353 5.55554 12.1131 5.56665 11.1064 5.61332C10.102 5.65999 9.41532 5.81776 8.8131 6.05332C8.1931 6.29554 7.66643 6.61776 7.13977 7.14221C6.61532 7.66665 6.29088 8.19332 6.05088 8.81554C5.81754 9.41554 5.65755 10.1022 5.61088 11.1089C5.56421 12.1155 5.5531 12.4378 5.5531 15.0022C5.5531 17.5667 5.56421 17.8889 5.61088 18.8955C5.65755 19.9 5.81532 20.5867 6.05088 21.1889C6.2931 21.8089 6.61532 22.3355 7.13977 22.8622C7.66421 23.3867 8.19088 23.7111 8.8131 23.9511C9.4131 24.1844 10.0998 24.3444 11.1064 24.3911C12.1131 24.4378 12.4353 24.4489 14.9998 24.4489C17.5642 24.4489 17.8864 24.4378 18.8931 24.3911C19.8975 24.3444 20.5842 24.1867 21.1864 23.9511C21.8064 23.7089 22.3331 23.3867 22.8598 22.8622C23.3842 22.3378 23.7087 21.8111 23.9487 21.1889C24.182 20.5889 24.342 19.9022 24.3887 18.8955C24.4353 17.8889 24.4464 17.5667 24.4464 15.0022C24.4464 12.4378 24.4353 12.1155 24.3887 11.1089C24.342 10.1044 24.1842 9.41776 23.9487 8.81554C23.7064 8.19554 23.3842 7.66888 22.8598 7.14221C22.3353 6.61776 21.8087 6.29332 21.1864 6.05332C20.5864 5.81999 19.8998 5.65999 18.8931 5.61332C17.8864 5.56665 17.5642 5.55554 14.9998 5.55554Z" fill="white"/>
<path d="M14.9998 10.1511C12.322 10.1511 10.1509 12.3222 10.1509 15C10.1509 17.6778 12.322 19.8489 14.9998 19.8489C17.6775 19.8489 19.8487 17.6778 19.8487 15C19.8487 12.3222 17.6775 10.1511 14.9998 10.1511ZM14.9998 18.1489C13.262 18.1489 11.8509 16.74 11.8509 15C11.8509 13.26 13.2598 11.8511 14.9998 11.8511C16.7398 11.8511 18.1487 13.26 18.1487 15C18.1487 16.74 16.7398 18.1489 14.9998 18.1489Z" fill="white"/>
<path d="M20.042 11.0911C20.6679 11.0911 21.1753 10.5837 21.1753 9.95777C21.1753 9.33184 20.6679 8.82443 20.042 8.82443C19.416 8.82443 18.9086 9.33184 18.9086 9.95777C18.9086 10.5837 19.416 11.0911 20.042 11.0911Z" fill="white"/>
</g>
<defs>
<clipPath id="clip0_2_345">
<rect width="30" height="30" fill="white" transform="translate(-0.000244141)"/>
</clipPath>
</defs>
</svg>
