<svg width="35" height="40" viewBox="0 0 35 40" fill="none" xmlns="http://www.w3.org/2000/svg">
<path d="M17.7302 6.36581C14.8139 6.3692 12.018 7.51232 9.95586 9.5444C7.89371 11.5765 6.73368 14.3316 6.73024 17.2054C6.72674 19.5539 7.50522 21.8386 8.94624 23.7091C8.94624 23.7091 9.24624 24.0984 9.29524 24.1546L17.7302 33.9575L26.1692 24.1496C26.2132 24.0974 26.5142 23.7091 26.5142 23.7091L26.5152 23.7062C27.9555 21.8365 28.7337 19.5528 28.7302 17.2054C28.7268 14.3316 27.5668 11.5765 25.5046 9.5444C23.4425 7.51232 20.6466 6.3692 17.7302 6.36581ZM17.7302 21.1471C16.9391 21.1471 16.1658 20.9159 15.508 20.4828C14.8502 20.0497 14.3375 19.4341 14.0347 18.7138C13.732 17.9936 13.6528 17.201 13.8071 16.4364C13.9614 15.6718 14.3424 14.9695 14.9018 14.4182C15.4612 13.867 16.174 13.4916 16.9499 13.3395C17.7258 13.1874 18.5301 13.2654 19.261 13.5638C19.9919 13.8621 20.6166 14.3673 21.0561 15.0155C21.4956 15.6637 21.7302 16.4258 21.7302 17.2054C21.7289 18.2504 21.3071 19.2522 20.5572 19.9911C19.8073 20.7301 18.7907 21.1458 17.7302 21.1471Z" fill="#FFD012"/>
</svg>
