<svg width="53" height="58" viewBox="0 0 53 58" fill="none" xmlns="http://www.w3.org/2000/svg">
<g clip-path="url(#clip0_2_6)">
<path fill-rule="evenodd" clip-rule="evenodd" d="M4.19775 17.2192C11.8025 21.6176 19.4072 26.0215 27.0064 30.42L43.0175 21.1506C44.8482 20.0918 47.2315 20.7325 48.2877 22.5679C49.3439 24.4033 48.7048 26.7926 46.874 27.8515C40.2497 31.6852 33.6253 35.519 27.0064 39.3527L4.19775 26.1464V17.2192ZM4.19775 39.9391V31.0119C11.8025 35.4104 19.4072 39.8143 27.0064 44.2181C32.2496 41.1827 37.4927 38.1472 42.7358 35.1117C44.5666 34.0528 46.9444 34.6936 48.0006 36.529C49.0568 38.3644 48.4177 40.7537 46.5869 41.8126C40.0601 45.592 33.5279 49.3714 27.001 53.1508C19.3963 48.7524 11.7916 44.3485 4.19234 39.95L4.19775 39.9391ZM27.0119 20.6999C20.1059 16.7033 13.2053 12.7067 6.29934 8.71005L21.3462 0C28.2522 3.99663 35.1528 7.99326 42.0588 11.9899C37.0431 14.895 32.0275 17.7948 27.0119 20.6999ZM51.6459 34.4166C50.9472 33.2057 49.9776 32.2445 48.8618 31.5658L48.981 31.4952C52.8158 29.2742 54.1429 24.311 51.9275 20.461C49.7122 16.6164 44.7616 15.286 40.9213 17.507L27.0064 25.56L2.10158 11.1428L0 12.3537V42.3664L27.0119 58L48.6993 45.4454C52.5342 43.2244 53.8612 38.2612 51.6459 34.4112V34.4166Z" fill="#FFD012"/>
<path fill-rule="evenodd" clip-rule="evenodd" d="M46.7223 23.2087L27.0281 34.6067L5.64393 22.2258V22.8068L27.0281 35.1823C33.6958 31.316 40.3688 27.4497 47.0419 23.5942L46.9661 23.4585C46.9444 23.415 46.9173 23.377 46.8902 23.3336C46.8632 23.2956 46.8361 23.2521 46.809 23.2141L46.7711 23.1652L46.7169 23.1978L46.7223 23.2087ZM44.4095 22.2367L27.0281 32.2988L5.64393 19.918V20.499L27.0281 32.8744C33.1324 29.3339 39.2476 25.7989 45.3574 22.2638L45.1678 22.2312C45.0486 22.2095 44.9241 22.2041 44.7995 22.1987C44.6803 22.1987 44.5557 22.1987 44.4366 22.2204H44.4203L44.4095 22.2312V22.2367ZM47.0961 39.0703L27.0064 50.6964L5.62769 38.3155V38.8965L27.0118 51.272C33.6578 47.4165 40.3038 43.5231 46.9769 39.7165L46.9877 39.7002C47.0365 39.6133 47.0744 39.521 47.1123 39.4287C47.1502 39.3364 47.1773 39.2386 47.2044 39.1409L47.2477 38.9834L47.1069 39.0649L47.0961 39.0703ZM46.7007 36.9905L27.0064 48.3885L5.62769 36.0077V36.5887L27.0118 48.9641C33.6795 45.0978 40.3526 41.2315 47.0256 37.3761L46.9498 37.2403C46.9281 37.1969 46.9011 37.1589 46.874 37.1154C46.8469 37.0774 46.8198 37.034 46.7927 36.996L46.7548 36.9471L46.7007 36.9797V36.9905ZM44.3878 36.0185L27.0064 46.0807L5.62769 33.6944V34.2754L27.0118 46.6509C33.1162 43.1104 39.2314 39.5753 45.3411 36.0402L45.1516 36.0077C45.0324 35.9859 44.9078 35.9805 44.7832 35.9751C44.6641 35.9751 44.5395 35.9751 44.4203 35.9968H44.4041L44.3932 36.0077L44.3878 36.0185ZM27.0281 36.9199L5.64393 24.5391V25.1201L27.0281 37.4955C33.6741 33.6401 40.3201 29.7466 46.9931 25.9401L47.004 25.9238C47.0527 25.8369 47.0906 25.7446 47.1286 25.6523C47.1665 25.56 47.1936 25.4622 47.2206 25.3645L47.264 25.207L27.0335 36.9145L27.0281 36.9199Z" fill="#FFD012"/>
</g>
<defs>
<clipPath id="clip0_2_6">
<rect width="53" height="58" fill="white"/>
</clipPath>
</defs>
</svg>
