<svg width="35" height="35" viewBox="0 0 35 35" fill="none" xmlns="http://www.w3.org/2000/svg">
<path d="M28.5893 23.8092L23.5081 19.1892C23.2679 18.9709 22.9523 18.8544 22.6278 18.8645C22.3034 18.8745 21.9956 19.0102 21.7693 19.2429L18.7781 22.3192C18.0581 22.1817 16.6106 21.7304 15.1206 20.2442C13.6306 18.7529 13.1793 17.3017 13.0456 16.5867L16.1193 13.5942C16.3523 13.3681 16.4882 13.0602 16.4983 12.7357C16.5083 12.4112 16.3917 12.0955 16.1731 11.8554L11.5543 6.77543C11.3356 6.53463 11.0317 6.38856 10.707 6.36825C10.3824 6.34795 10.0626 6.455 9.81558 6.66668L7.10308 8.99293C6.88697 9.20982 6.75798 9.49849 6.74058 9.80418C6.72183 10.1167 6.36433 17.5192 12.1043 23.2617C17.1118 28.2679 23.3843 28.6342 25.1118 28.6342C25.3643 28.6342 25.5193 28.6267 25.5606 28.6242C25.8662 28.6071 26.1547 28.4775 26.3706 28.2604L28.6956 25.5467C28.9081 25.3005 29.0159 24.9809 28.9961 24.6563C28.9762 24.3317 28.8303 24.0277 28.5893 23.8092Z" fill="#FFD012"/>
</svg>
