<svg width="30" height="30" viewBox="0 0 30 30" fill="none" xmlns="http://www.w3.org/2000/svg">
<g clip-path="url(#clip0_2_354)">
<circle cx="14.9998" cy="15" r="15" fill="white"/>
<path d="M15.0131 0C6.72198 0 -0.000244141 6.71128 -0.000244141 14.9889C-0.000244141 21.3408 3.95309 26.7697 9.53753 28.9528C9.40198 27.7681 9.29087 25.9422 9.58642 24.6487C9.85753 23.4773 11.342 17.1986 11.342 17.1986C11.342 17.1986 10.8975 16.2979 10.8975 14.9778C10.8975 12.8923 12.1086 11.3393 13.6153 11.3393C14.8998 11.3393 15.5175 12.3022 15.5175 13.4492C15.5175 14.7315 14.702 16.6573 14.2686 18.4455C13.9109 19.9386 15.022 21.1589 16.4931 21.1589C19.162 21.1589 21.2131 18.3457 21.2131 14.3011C21.2131 10.7114 18.6309 8.20663 14.9353 8.20663C10.6598 8.20663 8.15309 11.4014 8.15309 14.7071C8.15309 15.9895 8.64642 17.3717 9.2642 18.1238C9.38864 18.2724 9.39976 18.4078 9.36198 18.5564C9.25087 19.0246 8.99087 20.0495 8.94198 20.2581C8.87976 20.5288 8.71976 20.5909 8.43531 20.4556C6.55753 19.5792 5.3842 16.8525 5.3842 14.645C5.3842 9.91939 8.81976 5.57758 15.3064 5.57758C20.5086 5.57758 24.562 9.27821 24.562 14.2368C24.562 19.1954 21.2998 23.5616 16.7775 23.5616C15.2575 23.5616 13.8242 22.7718 13.342 21.8355C13.342 21.8355 12.5886 24.6975 12.402 25.4008C12.0686 26.7076 11.1531 28.336 10.5353 29.3366C11.9442 29.7693 13.4264 30.0022 14.9842 30.0022C23.2753 30.0022 29.9975 23.2909 29.9975 15.0133C30.0242 6.71129 23.302 0 15.0131 0Z" fill="#FFD012"/>
</g>
<defs>
<clipPath id="clip0_2_354">
<rect width="30" height="30" fill="white" transform="translate(-0.000244141)"/>
</clipPath>
</defs>
</svg>
