<svg width="30" height="30" viewBox="0 0 30 30" fill="none" xmlns="http://www.w3.org/2000/svg">
<g clip-path="url(#clip0_2_351)">
<path d="M14.9998 30C23.284 30 29.9998 23.2843 29.9998 15C29.9998 6.71573 23.284 0 14.9998 0C6.71548 0 -0.000244141 6.71573 -0.000244141 15C-0.000244141 23.2843 6.71548 30 14.9998 30Z" fill="#FFD012"/>
<path d="M11.9686 23.64C19.2953 23.64 23.3019 17.5711 23.3019 12.3067C23.3019 12.1333 23.2975 11.9622 23.2908 11.7911C24.0686 11.2289 24.7442 10.5267 25.2775 9.72888C24.5642 10.0467 23.7953 10.26 22.9908 10.3555C23.8131 9.86221 24.4442 9.08221 24.7419 8.15332C23.9731 8.60888 23.1197 8.94221 22.2131 9.11999C21.4864 8.34666 20.4508 7.86221 19.3064 7.86221C17.1064 7.86221 15.3219 9.64666 15.3219 11.8444C15.3219 12.1578 15.3575 12.46 15.4264 12.7533C12.1153 12.5867 9.17973 11.0022 7.21751 8.5911C6.87528 9.17999 6.67751 9.86443 6.67751 10.5933C6.67751 11.9755 7.37973 13.1955 8.45084 13.9089C7.7975 13.8889 7.18417 13.7089 6.64639 13.4111C6.64639 13.4267 6.64639 13.4444 6.64639 13.4622C6.64639 15.3911 8.01973 17.0022 9.84195 17.3667C9.50639 17.4578 9.15528 17.5067 8.79306 17.5067C8.5375 17.5067 8.28639 17.4822 8.04417 17.4355C8.55084 19.0178 10.0219 20.1689 11.7642 20.2022C10.3997 21.2711 8.68417 21.9067 6.81751 21.9067C6.49528 21.9067 6.17973 21.8889 5.86639 21.8511C7.62862 22.98 9.72195 23.64 11.9708 23.64" fill="white"/>
</g>
<defs>
<clipPath id="clip0_2_351">
<rect width="30" height="30" fill="white" transform="translate(-0.000244141)"/>
</clipPath>
</defs>
</svg>
